<?xml version="1.0" standalone="no"?>
<!DOCTYPE svg PUBLIC "-//W3C//DTD SVG 20010904//EN"
 "http://www.w3.org/TR/2001/REC-SVG-20010904/DTD/svg10.dtd">
<svg version="1.0" xmlns="http://www.w3.org/2000/svg"
 width="600.000000pt" height="600.000000pt" viewBox="0 0 600.000000 600.000000"
 preserveAspectRatio="xMidYMid meet">
<metadata>
Created by potrace 1.14, written by Peter Selinger 2001-2017
</metadata>
<g transform="translate(0.000000,600.000000) scale(0.100000,-0.100000)"
fill="#000000" stroke="none">
<path d="M2460 5997 c-5 -4 -42 -10 -160 -23 -148 -17 -401 -70 -411 -86 -4
-6 -11 -8 -16 -5 -31 19 -428 -127 -603 -221 -238 -128 -508 -331 -492 -370 4
-11 1 -14 -10 -9 -19 7 -61 -30 -52 -45 4 -6 2 -8 -4 -4 -31 19 -261 -284
-375 -494 -114 -211 -240 -570 -278 -795 -63 -372 -58 -284 -58 -935 -1 -555
1 -603 20 -720 11 -69 24 -150 29 -180 18 -111 71 -318 90 -352 6 -10 10 -25
10 -33 0 -26 80 -234 134 -349 29 -61 79 -154 111 -206 72 -117 191 -280 205
-280 5 0 10 -5 10 -10 0 -51 434 -431 447 -393 3 8 14 1 30 -17 26 -32 63 -40
63 -15 0 8 6 14 12 12 7 -1 12 6 12 15 -1 10 2 15 7 12 5 -3 9 -20 9 -39 0
-54 16 -83 59 -105 55 -27 64 -26 56 9 -3 17 -2 32 4 36 9 5 17 -37 12 -67 0
-4 9 -14 22 -22 35 -24 237 -106 258 -106 16 0 17 3 7 27 -12 32 -37 132 -45
183 -3 19 -10 38 -16 42 -5 3 -10 23 -11 43 -1 27 4 40 18 47 11 6 28 19 39
28 18 17 55 29 107 33 14 1 27 4 30 7 3 3 15 11 28 18 17 9 22 9 22 0 0 -6 6
-3 14 7 9 12 28 19 56 21 23 1 46 8 51 16 7 10 9 10 9 0 0 -7 5 -10 11 -6 6 3
15 1 19 -6 5 -8 10 -9 14 -2 3 6 -1 18 -10 26 -14 15 -13 16 8 17 13 0 34 2
48 4 14 1 31 -2 38 -7 8 -8 12 -6 12 5 0 17 18 26 38 20 6 -3 12 -11 12 -19 0
-9 5 -12 10 -9 6 3 12 0 15 -7 4 -9 21 -13 50 -12 25 1 45 -2 45 -6 0 -10 40
-1 58 13 9 7 12 4 12 -12 0 -21 1 -21 24 6 13 15 23 29 22 30 -1 1 -17 5 -36
8 -19 3 -36 8 -39 10 -8 9 52 25 63 17 24 -18 76 1 76 28 0 21 19 30 64 30 20
0 38 8 50 21 14 17 20 19 29 9 9 -10 9 -14 0 -17 -7 -3 -13 -17 -13 -33 0 -16
-4 -40 -9 -53 -6 -14 -7 -28 -4 -31 4 -3 8 -18 9 -33 2 -14 7 -29 12 -32 5 -3
17 -20 26 -38 9 -18 25 -37 37 -43 14 -8 18 -17 14 -31 -4 -11 -3 -19 2 -18
19 3 33 -2 33 -12 0 -7 16 -32 36 -56 31 -38 34 -46 22 -60 -11 -15 -10 -16
10 -11 20 5 22 3 16 -14 -5 -17 -3 -20 10 -15 10 4 16 1 16 -8 0 -8 8 -16 18
-17 9 0 22 -2 29 -2 6 -1 15 -5 19 -9 4 -4 12 -7 18 -7 6 0 4 5 -4 10 -8 5
-10 10 -3 10 6 0 9 9 5 22 -4 18 -2 20 14 13 10 -4 40 -10 67 -12 26 -3 47 -9
47 -12 0 -8 -4 -7 152 -15 107 -6 121 -5 164 15 42 20 52 21 103 11 52 -11 74
-10 158 3 17 3 34 1 37 -4 8 -13 -21 -34 -35 -25 -9 5 -10 2 -6 -11 6 -14 3
-16 -13 -12 -11 3 -20 1 -20 -4 0 -5 -9 -9 -20 -9 -11 0 -20 -5 -20 -10 0 -6
10 -8 24 -4 13 3 41 6 62 7 47 2 55 10 43 49 -7 25 -5 30 17 38 35 14 61 12
67 -3 6 -16 -31 -42 -55 -38 -13 1 -16 -2 -12 -13 8 -20 24 -20 53 0 18 13 25
14 31 4 6 -10 12 -9 26 5 20 19 27 45 14 45 -5 0 -12 -9 -15 -21 -8 -25 -17
-18 -21 16 -2 19 3 26 20 31 12 3 26 4 32 4 15 -3 54 12 54 20 0 4 21 13 46
20 26 8 65 27 88 45 70 53 140 99 156 103 8 1 25 4 36 5 12 1 20 7 17 13 -2 6
9 11 28 12 18 0 35 4 38 9 3 4 13 9 21 11 8 2 17 8 18 13 5 13 29 11 36 -3 3
-10 9 -8 19 4 8 10 17 15 20 11 10 -9 9 -25 -1 -19 -11 7 -43 -20 -40 -34 2
-7 -10 -14 -27 -17 -29 -4 -53 -25 -35 -31 5 -2 7 -9 4 -17 -3 -7 -1 -16 5
-20 6 -3 11 -1 11 4 0 6 9 11 20 11 11 0 20 4 20 9 0 14 54 20 68 8 8 -6 11
-20 8 -33 -4 -13 -2 -25 2 -28 16 -10 12 -88 -8 -169 -22 -90 -25 -117 -10
-117 6 0 46 14 88 30 67 26 81 35 95 65 9 20 17 44 17 53 0 10 4 22 9 27 16
19 33 111 38 209 2 54 9 109 14 123 5 13 9 39 9 56 0 40 10 77 20 77 14 0 51
-139 57 -211 3 -38 0 -117 -7 -175 -6 -58 -10 -108 -7 -110 3 -3 14 3 25 14
40 40 49 263 15 377 -27 91 -35 138 -23 130 5 -3 15 3 22 15 17 27 34 25 55
-7 33 -51 122 -123 152 -123 16 0 71 -69 71 -88 0 -5 7 -15 15 -22 8 -7 15
-23 15 -36 0 -46 27 -31 162 89 87 78 120 123 112 155 -7 24 -46 42 -52 23 -2
-6 -8 -11 -13 -11 -6 0 -7 5 -3 11 5 9 -4 10 -30 5 -33 -6 -41 -3 -76 31 -22
20 -40 43 -40 50 0 7 -8 13 -17 13 -16 1 -16 2 2 16 18 13 21 13 31 -1 8 -11
14 -12 19 -6 8 15 -3 31 -21 31 -8 0 -13 4 -9 9 3 5 19 8 35 6 29 -4 40 7 20
20 -15 9 -12 25 5 25 8 0 15 -9 15 -20 0 -11 7 -20 15 -20 25 0 30 4 28 23 -2
9 4 17 12 17 13 0 19 -12 13 -25 -8 -13 38 -32 58 -25 22 9 34 4 34 -12 0 -4
-7 -8 -15 -8 -8 0 -15 -4 -15 -10 0 -17 22 -11 41 11 13 15 26 20 45 16 22 -4
34 2 61 30 18 20 33 37 33 38 0 1 -11 0 -25 -3 -17 -3 -25 -11 -25 -24 0 -14
-5 -18 -16 -14 -9 3 -18 6 -20 6 -2 0 -4 6 -4 14 0 21 -16 28 -42 20 l-23 -7
23 -8 c29 -11 29 -33 0 -23 -13 3 -23 7 -23 8 -1 0 -6 13 -12 28 -10 21 -9 27
2 32 8 3 15 0 17 -6 3 -8 9 -8 19 -2 14 9 19 10 39 13 6 0 10 11 10 22 0 16 5
20 20 16 17 -4 20 -1 18 21 -3 23 1 27 20 25 28 -3 29 17 1 24 -13 4 -18 11
-14 21 3 8 0 21 -7 29 -10 12 -9 15 7 13 32 -4 35 -1 25 25 -8 21 -7 25 10 25
13 0 20 7 20 20 0 11 4 20 9 20 14 0 41 -41 35 -52 -3 -4 2 -8 10 -8 21 0 30
18 17 34 -6 7 -8 16 -4 19 11 12 23 8 23 -8 0 -7 6 -18 13 -22 8 -4 17 -17 21
-28 7 -20 8 -20 22 -1 16 22 19 40 5 31 -9 -5 -61 53 -61 68 0 14 21 6 27 -11
8 -21 35 -42 46 -35 4 3 5 18 2 34 -4 18 -3 29 4 29 6 0 11 -7 11 -16 0 -14 3
-14 15 -4 9 7 13 21 10 30 -3 11 1 20 11 24 11 4 14 13 10 31 -5 18 -2 25 9
25 16 0 20 15 6 24 -5 3 -11 19 -13 35 -2 17 -1 28 4 25 4 -3 8 -14 8 -25 0
-26 17 -24 31 3 9 16 9 23 0 26 -16 5 -14 22 3 22 7 0 20 19 29 43 26 71 29
87 17 87 -6 0 -8 5 -5 10 4 6 10 8 15 5 10 -6 22 58 14 79 -4 10 -1 16 9 16
13 0 29 54 32 107 0 6 4 15 8 19 11 11 9 44 -3 44 -5 0 -10 4 -10 10 0 5 7 7
15 4 10 -4 15 0 16 12 2 25 2 26 -6 47 -5 11 -2 17 7 17 10 0 20 37 36 143 42
276 47 351 47 742 -1 458 -10 570 -82 935 -62 320 -178 633 -326 883 -22 38
-46 71 -54 74 -7 3 -13 12 -13 20 0 17 -65 113 -109 162 -17 19 -31 37 -31 40
0 12 -207 220 -279 281 -260 219 -635 401 -1021 495 -52 13 -97 23 -100 23 -3
-1 -12 1 -20 5 -22 9 -109 25 -255 49 -118 19 -179 22 -685 25 -306 2 -558 2
-560 0z m1270 -67 c0 -5 -5 -10 -11 -10 -5 0 -7 5 -4 10 3 6 8 10 11 10 2 0 4
-4 4 -10z m-1653 -52 c-3 -8 -6 -5 -6 6 -1 11 2 17 5 13 3 -3 4 -12 1 -19z
m1443 -18 c0 -5 -2 -10 -4 -10 -3 0 -8 5 -11 10 -3 6 -1 10 4 10 6 0 11 -4 11
-10z m430 -206 c0 -8 -5 -12 -10 -9 -6 4 -8 11 -5 16 9 14 15 11 15 -7z m640
-28 c0 -3 -4 -8 -10 -11 -5 -3 -10 -1 -10 4 0 6 5 11 10 11 6 0 10 -2 10 -4z
m-3395 -66 c3 -5 -1 -10 -9 -10 -9 0 -16 5 -16 10 0 6 4 10 9 10 6 0 13 -4 16
-10z m3255 -20 c0 -5 -2 -10 -4 -10 -3 0 -8 5 -11 10 -3 6 -1 10 4 10 6 0 11
-4 11 -10z m-3225 -47 c-7 -30 -13 -39 -19 -32 -8 8 6 59 16 59 6 0 7 -11 3
-27z m590 -3 c3 -5 -1 -10 -9 -10 -9 0 -16 5 -16 10 0 6 4 10 9 10 6 0 13 -4
16 -10z m2435 -20 c0 -5 -2 -10 -4 -10 -3 0 -8 5 -11 10 -3 6 -1 10 4 10 6 0
11 -4 11 -10z m-20 -50 c0 -5 -4 -10 -10 -10 -5 0 -10 5 -10 10 0 6 5 10 10
10 6 0 10 -4 10 -10z m295 -60 c3 -5 1 -10 -4 -10 -6 0 -11 5 -11 10 0 6 2 10
4 10 3 0 8 -4 11 -10z m485 -70 c0 -5 -4 -10 -10 -10 -5 0 -10 5 -10 10 0 6 5
10 10 10 6 0 10 -4 10 -10z m-4100 -45 c0 -8 -7 -15 -15 -15 -16 0 -20 12 -8
23 11 12 23 8 23 -8z m140 1 c0 -8 -4 -18 -10 -21 -5 -3 -10 3 -10 14 0 12 5
21 10 21 6 0 10 -6 10 -14z m-20 -56 c0 -5 -4 -10 -10 -10 -5 0 -10 5 -10 10
0 6 5 10 10 10 6 0 10 -4 10 -10z m-120 -40 c0 -5 -4 -10 -10 -10 -5 0 -10 5
-10 10 0 6 5 10 10 10 6 0 10 -4 10 -10z m3910 -30 c0 -5 -2 -10 -4 -10 -3 0
-8 5 -11 10 -3 6 -1 10 4 10 6 0 11 -4 11 -10z m-4040 -15 c-7 -9 -15 -13 -17
-11 -7 7 7 26 19 26 6 0 6 -6 -2 -15z m380 -6 c0 -5 -4 -9 -10 -9 -5 0 -10 7
-10 16 0 8 5 12 10 9 6 -3 10 -10 10 -16z m50 11 c0 -5 -4 -10 -10 -10 -5 0
-10 5 -10 10 0 6 5 10 10 10 6 0 10 -4 10 -10z m-575 -10 c3 -5 -1 -10 -9 -10
-9 0 -16 5 -16 10 0 6 4 10 9 10 6 0 13 -4 16 -10z m3905 -11 c0 -5 -4 -9 -10
-9 -5 0 -10 7 -10 16 0 8 5 12 10 9 6 -3 10 -10 10 -16z m-3810 -120 c0 -6 -4
-7 -10 -4 -5 3 -10 11 -10 16 0 6 5 7 10 4 6 -3 10 -11 10 -16z m340 7 c0 -3
-4 -8 -10 -11 -5 -3 -10 -1 -10 4 0 6 5 11 10 11 6 0 10 -2 10 -4z m3565 -16
c3 -5 -1 -10 -10 -10 -9 0 -13 5 -10 10 3 6 8 10 10 10 2 0 7 -4 10 -10z
m-4015 -30 c0 -5 -4 -10 -10 -10 -5 0 -10 5 -10 10 0 6 5 10 10 10 6 0 10 -4
10 -10z m4070 -32 c0 -13 -23 -5 -28 10 -2 7 2 10 12 6 9 -3 16 -11 16 -16z
m-4085 -18 c3 -5 1 -10 -4 -10 -6 0 -11 5 -11 10 0 6 2 10 4 10 3 0 8 -4 11
-10z m4395 -80 c0 -5 -2 -10 -4 -10 -3 0 -8 5 -11 10 -3 6 -1 10 4 10 6 0 11
-4 11 -10z m462 -25 c0 -5 -5 -11 -11 -13 -6 -2 -11 4 -11 13 0 9 5 15 11 13
6 -2 11 -8 11 -13z m-3258 -94 c0 -14 4 -20 12 -17 17 6 24 -16 10 -30 -17
-16 -45 6 -43 32 1 12 -3 18 -14 16 -9 -1 -19 4 -23 13 -4 12 1 14 27 11 25
-3 32 -8 31 -25z m-170 -12 c-3 -5 1 -6 9 -3 8 3 18 0 22 -5 3 -6 11 -8 17 -5
6 4 8 2 4 -4 -3 -5 0 -13 6 -15 10 -4 9 -8 -2 -16 -8 -5 -11 -13 -7 -18 5 -4
12 -2 16 5 4 7 14 12 22 10 8 -2 13 3 11 12 -2 8 0 12 4 8 4 -4 13 -3 21 3 10
9 13 8 13 -4 0 -21 81 -61 92 -44 6 9 10 9 17 -2 5 -7 13 -11 19 -8 5 4 28 -3
51 -14 27 -13 52 -18 69 -14 24 5 29 1 39 -25 6 -16 18 -30 27 -30 10 0 13 6
9 17 -5 13 -2 15 11 10 10 -4 23 -7 29 -7 7 0 6 -4 -3 -10 -13 -8 -11 -11 8
-16 12 -4 22 -9 22 -11 0 -3 -12 -48 -26 -100 -14 -52 -23 -102 -19 -111 10
-27 -54 -146 -93 -173 -38 -26 -116 -171 -108 -201 2 -10 0 -18 -5 -18 -14 0
-11 -22 7 -41 17 -19 12 -39 -10 -39 -7 0 -21 -9 -32 -21 -14 -16 -19 -40 -22
-114 l-4 -95 -27 6 c-14 4 -33 13 -41 20 -20 17 -117 11 -158 -10 -17 -9 -36
-16 -42 -16 -6 0 -18 -7 -26 -15 -23 -22 -29 -19 -31 19 -1 19 -7 45 -14 58
-7 13 -14 32 -16 43 -2 10 -13 30 -25 42 -12 13 -16 23 -9 23 8 0 11 13 8 39
-3 32 -13 49 -48 82 -79 75 -158 113 -192 92 -5 -3 -28 -6 -51 -7 -39 -1 -41
1 -42 28 -1 28 9 56 46 126 10 19 34 67 54 106 19 39 42 77 51 84 8 7 15 19
15 26 0 8 5 14 12 14 6 0 9 3 5 6 -3 4 3 14 14 23 19 16 38 44 58 89 6 12 15
22 20 22 5 0 23 23 41 50 18 28 36 50 41 50 5 0 9 6 9 13 0 7 9 19 19 26 11 8
17 19 15 26 -6 14 14 31 40 36 39 8 66 7 60 -2z m-1284 -155 c0 -8 -4 -12 -10
-9 -5 3 -10 10 -10 16 0 5 5 9 10 9 6 0 10 -7 10 -16z m4590 -4 c0 -5 -5 -10
-11 -10 -5 0 -7 5 -4 10 3 6 8 10 11 10 2 0 4 -4 4 -10z m-260 -50 c0 -5 -4
-10 -10 -10 -5 0 -10 5 -10 10 0 6 5 10 10 10 6 0 10 -4 10 -10z m-4290 -70
c0 -5 -4 -10 -10 -10 -5 0 -10 5 -10 10 0 6 5 10 10 10 6 0 10 -4 10 -10z
m-30 -41 c0 -5 -7 -9 -15 -9 -15 0 -20 12 -9 23 8 8 24 -1 24 -14z m-305 -9
c-3 -5 -13 -10 -21 -10 -8 0 -14 5 -14 10 0 6 9 10 21 10 11 0 17 -4 14 -10z
m110 -90 c3 -5 1 -10 -4 -10 -6 0 -11 5 -11 10 0 6 2 10 4 10 3 0 8 -4 11 -10z
m-55 -180 c0 -5 -4 -10 -10 -10 -5 0 -10 5 -10 10 0 6 5 10 10 10 6 0 10 -4
10 -10z m-295 -29 c3 -5 1 -12 -5 -16 -5 -3 -10 1 -10 9 0 18 6 21 15 7z
m2625 -25 c-1 -4 7 -15 18 -24 10 -9 17 -23 15 -29 -7 -19 -21 -16 -26 5 -4
13 -5 12 -6 -5 -1 -17 -6 -21 -18 -17 -15 5 -15 3 1 -10 19 -15 19 -16 -8 -16
-23 0 -26 3 -21 20 5 14 2 20 -10 20 -12 0 -15 6 -10 20 4 11 3 19 -2 18 -4
-2 -9 2 -11 7 -1 6 12 13 30 16 39 7 50 6 48 -5z m-2615 -76 c-5 -8 -11 -8
-17 -2 -6 6 -7 16 -3 22 5 8 11 8 17 2 6 -6 7 -16 3 -22z m125 4 c0 -8 -4 -12
-10 -9 -5 3 -10 10 -10 16 0 5 5 9 10 9 6 0 10 -7 10 -16z m1345 -24 c3 -5 1
-10 -4 -10 -6 0 -11 5 -11 10 0 6 2 10 4 10 3 0 8 -4 11 -10z m-1500 -20 c3
-5 1 -10 -4 -10 -6 0 -11 5 -11 10 0 6 2 10 4 10 3 0 8 -4 11 -10z m315 0 c0
-5 -2 -10 -4 -10 -3 0 -8 5 -11 10 -3 6 -1 10 4 10 6 0 11 -4 11 -10z m2489
-54 c14 -14 38 -28 53 -31 37 -9 44 -20 66 -102 l19 -72 -26 13 c-14 7 -46 16
-69 19 -24 3 -54 14 -65 25 -12 11 -43 31 -69 46 -47 27 -69 53 -82 93 -8 24
-2 25 98 31 41 2 54 -2 75 -22z m-599 -31 c0 -3 -9 -14 -20 -25 -13 -13 -20
-15 -20 -7 0 7 5 18 12 25 12 12 28 16 28 7z m288 -77 c18 -39 31 -71 30 -72
-25 -13 -81 -36 -88 -36 -11 0 -37 73 -44 123 -4 32 -2 39 17 47 43 17 52 10
85 -62z m-947 20 c27 -15 28 -50 1 -46 -21 4 -30 -49 -11 -66 9 -8 11 -7 6 7
-4 11 -1 17 8 17 8 0 15 -6 15 -14 0 -7 7 -19 15 -26 8 -6 13 -15 12 -19 -1
-4 12 -20 28 -35 26 -25 27 -26 5 -14 -51 29 -156 56 -219 56 -42 0 -66 4 -72
13 -4 8 -3 16 3 20 14 9 1 29 -18 29 -8 0 -13 3 -12 8 1 4 -3 17 -10 29 -15
27 -7 32 56 42 85 12 168 12 193 -1z m657 -55 c-19 -21 -40 -53 -47 -72 -14
-44 -14 -112 1 -148 l11 -28 8 44 c6 29 19 55 39 74 29 28 30 28 30 7 0 -34
37 -171 60 -221 11 -24 38 -64 60 -89 22 -24 40 -48 40 -52 0 -5 -30 -8 -66
-7 -89 3 -118 24 -168 123 -31 63 -41 96 -51 176 -10 89 -10 102 7 133 17 35
83 97 102 97 6 0 -6 -17 -26 -37z m-1903 -33 c3 -5 1 -10 -4 -10 -6 0 -11 5
-11 10 0 6 2 10 4 10 3 0 8 -4 11 -10z m2290 -69 c-3 -11 -3 -31 1 -46 5 -22
11 -26 31 -20 23 5 24 4 18 -25 -6 -30 -6 -30 33 -30 24 0 47 -7 56 -16 9 -8
16 -12 16 -7 1 4 9 -1 18 -12 26 -29 153 -90 180 -86 16 3 15 -2 -5 -25 -36
-39 -210 -21 -271 27 -14 10 -31 19 -39 19 -8 0 -26 12 -41 28 -15 15 -42 39
-60 54 -18 15 -32 29 -30 31 2 3 -5 14 -15 25 -27 30 -18 64 23 84 19 10 48
18 63 18 23 0 27 -3 22 -19z m361 -9 c15 -10 26 -72 13 -72 -9 0 -47 17 -57
25 -5 4 21 55 27 55 3 0 11 -4 17 -8z m1471 -14 c40 -50 33 -187 -19 -373 -16
-60 -35 -128 -40 -150 -19 -75 -34 -110 -43 -105 -19 10 9 180 45 275 28 75
38 119 30 135 -4 8 -15 41 -24 72 -12 40 -26 64 -47 81 l-31 24 29 19 c23 16
50 26 84 33 4 0 11 -5 16 -11z m-4537 -28 c0 -5 -4 -10 -10 -10 -5 0 -10 5
-10 10 0 6 5 10 10 10 6 0 10 -4 10 -10z m1645 -24 c39 -8 71 -24 85 -41 14
-17 11 -17 -51 -11 -54 6 -78 3 -130 -13 -34 -12 -73 -28 -87 -37 -31 -20 -48
-13 -55 24 -8 37 12 80 38 85 23 5 170 0 200 -7z m488 -16 c46 -23 66 -56 67
-110 1 -35 62 -156 94 -186 40 -37 61 -42 203 -48 94 -3 106 -6 150 -34 26
-17 77 -40 113 -52 36 -12 73 -25 82 -30 11 -6 18 -5 22 3 4 8 8 8 11 1 7 -14
97 -8 163 12 55 17 72 14 55 -8 -6 -7 -14 -31 -18 -53 -4 -22 -11 -46 -17 -52
-6 -7 -8 -19 -5 -27 3 -8 2 -16 -4 -18 -5 -2 -10 -28 -12 -58 -1 -30 -5 -57
-9 -60 -3 -3 -8 -44 -11 -91 -5 -91 13 -221 38 -270 8 -15 17 -42 20 -60 3
-19 10 -35 16 -37 5 -2 9 -15 9 -28 0 -14 7 -40 15 -60 15 -37 99 -124 120
-124 7 0 18 -6 24 -14 6 -8 24 -16 39 -19 15 -3 62 -15 105 -26 43 -12 82 -19
87 -16 5 3 11 1 15 -5 3 -5 -1 -10 -9 -10 -9 0 -16 -6 -16 -14 0 -18 -27 -29
-34 -13 -3 7 -5 6 -5 -3 -1 -11 -13 -17 -38 -18 -21 -2 -39 -7 -41 -12 -2 -6
-9 -10 -16 -10 -6 0 -19 -12 -28 -27 -12 -19 -18 -23 -18 -11 0 9 6 19 13 21
9 4 9 6 0 6 -19 1 -42 -51 -36 -80 5 -29 -31 -74 -102 -125 -22 -16 -43 -33
-47 -39 -5 -6 -8 -5 -8 3 0 6 -4 12 -10 12 -5 0 -10 -7 -10 -16 0 -11 -6 -14
-22 -9 -16 6 -20 4 -15 -8 3 -8 0 -14 -6 -14 -31 1 -48 -4 -43 -12 6 -9 -52
-58 -104 -87 -19 -10 -41 -25 -48 -32 -8 -7 -17 -10 -22 -7 -5 3 -10 2 -12 -3
-4 -9 -111 -62 -126 -62 -6 0 -15 -7 -20 -16 -5 -8 -16 -16 -25 -18 -9 -1 -19
-5 -22 -8 -12 -11 7 -57 26 -63 11 -4 16 -11 13 -17 -13 -21 -182 -3 -259 26
-231 90 -411 181 -475 240 -22 20 -41 36 -44 36 -13 0 -128 109 -232 221 -110
119 -224 338 -196 378 7 9 19 32 28 51 8 19 23 51 32 70 9 19 15 39 14 44 -2
5 0 16 4 25 10 25 14 63 7 75 -4 6 -6 26 -4 46 4 55 -54 170 -67 132 -2 -7 -9
-18 -15 -25 -7 -6 -12 -18 -12 -26 0 -8 -8 -19 -17 -25 -13 -8 -21 -5 -37 13
-12 13 -22 36 -22 50 -1 14 -2 50 -4 79 l-2 53 41 18 c23 11 68 27 101 36 134
39 153 47 213 86 67 44 95 89 90 143 -3 29 -3 28 -36 -22 -36 -56 -99 -98
-199 -133 -60 -20 -251 -51 -265 -43 -19 12 4 93 38 134 24 29 40 122 30 177
-12 71 -2 117 32 139 15 9 31 23 35 31 13 21 27 15 39 -18 6 -17 21 -34 34
-39 14 -6 21 -15 18 -23 -2 -7 4 -21 15 -31 17 -16 23 -16 77 -2 32 8 70 24
86 36 15 11 38 24 50 29 23 8 23 7 25 -69 3 -80 15 -130 32 -130 5 0 11 10 14
23 9 37 8 200 -1 232 -7 25 -4 37 20 72 42 62 90 84 173 80 28 -2 72 -14 98
-27z m2217 10 c0 -5 -4 -10 -10 -10 -5 0 -10 5 -10 10 0 6 5 10 10 10 6 0 10
-4 10 -10z m-2650 -120 c0 -5 -4 -10 -9 -10 -6 0 -13 5 -16 10 -3 6 1 10 9 10
9 0 16 -4 16 -10z m1424 -65 c-22 -16 -44 -19 -44 -6 0 11 18 19 44 20 20 1
20 1 0 -14z m-2934 -15 c0 -5 -5 -10 -11 -10 -5 0 -7 5 -4 10 3 6 8 10 11 10
2 0 4 -4 4 -10z m835 -30 c-3 -5 -1 -19 5 -30 6 -12 10 -31 8 -43 -3 -17 -7
-11 -20 25 -9 25 -14 49 -10 52 9 10 24 7 17 -4z m-688 -26 c-3 -3 -12 -4 -19
-1 -8 3 -5 6 6 6 11 1 17 -2 13 -5z m734 -129 c9 -25 14 -45 10 -45 -7 0 -41
75 -41 92 0 20 13 -1 31 -47z m53 -112 c14 -27 39 -62 55 -80 31 -32 39 -53
21 -53 -14 0 -70 58 -70 71 0 6 -9 22 -20 36 -18 23 -28 73 -15 73 2 0 16 -21
29 -47z m4066 -263 c0 -5 -4 -10 -10 -10 -5 0 -10 5 -10 10 0 6 5 10 10 10 6
0 10 -4 10 -10z m-40 -420 c0 -5 -2 -10 -4 -10 -3 0 -8 5 -11 10 -3 6 -1 10 4
10 6 0 11 -4 11 -10z m620 -284 c-14 -14 -22 -2 -14 18 5 14 9 15 15 4 4 -7 4
-17 -1 -22z m-22 -28 c-2 -6 -10 -14 -16 -16 -7 -2 -10 2 -6 12 7 18 28 22 22
4z m-168 -8 c0 -5 -2 -10 -4 -10 -3 0 -8 5 -11 10 -3 6 -1 10 4 10 6 0 11 -4
11 -10z m-80 -39 c0 -17 -18 -21 -24 -6 -3 9 0 15 9 15 8 0 15 -4 15 -9z m120
-1 c0 -5 -2 -10 -4 -10 -3 0 -8 5 -11 10 -3 6 -1 10 4 10 6 0 11 -4 11 -10z
m-5130 -20 c0 -5 -4 -10 -10 -10 -5 0 -10 5 -10 10 0 6 5 10 10 10 6 0 10 -4
10 -10z m5020 -14 c0 -2 -7 -6 -15 -10 -8 -3 -15 -1 -15 4 0 6 7 10 15 10 8 0
15 -2 15 -4z m260 -10 c0 -11 -19 -15 -25 -6 -3 5 1 10 9 10 9 0 16 -2 16 -4z
m-473 -42 c2 -7 -6 -10 -21 -7 -14 3 -23 10 -20 15 8 12 36 6 41 -8z m200 -10
c-9 -9 -28 6 -21 18 4 6 10 6 17 -1 6 -6 8 -13 4 -17z m243 6 c0 -5 -4 -10
-10 -10 -5 0 -10 5 -10 10 0 6 5 10 10 10 6 0 10 -4 10 -10z m-545 -48 c-8 -8
-25 10 -19 20 4 6 9 5 15 -3 4 -7 6 -15 4 -17z m465 3 c10 -12 10 -15 -3 -15
-8 0 -17 7 -21 15 -3 8 -2 15 3 15 5 0 14 -7 21 -15z m-255 -35 c-3 -5 -10
-10 -16 -10 -5 0 -9 5 -9 10 0 6 7 10 16 10 8 0 12 -4 9 -10z m285 -10 c0 -5
-7 -7 -15 -4 -8 4 -12 10 -9 15 6 11 24 2 24 -11z m-650 -15 c0 -8 -4 -17 -10
-20 -6 -4 -10 5 -10 20 0 15 4 24 10 20 6 -3 10 -12 10 -20z m190 3 c0 -19 -2
-20 -10 -8 -13 19 -13 30 0 30 6 0 10 -10 10 -22z m520 12 c0 -5 -4 -10 -9
-10 -6 0 -13 5 -16 10 -3 6 1 10 9 10 9 0 16 -4 16 -10z m-387 -28 c-3 -12
-12 -22 -19 -22 -18 0 -18 6 3 30 20 23 24 22 16 -8z m-4533 2 c0 -8 -4 -12
-10 -9 -5 3 -10 10 -10 16 0 5 5 9 10 9 6 0 10 -7 10 -16z m4378 -12 c2 -7 -3
-12 -12 -12 -9 0 -16 7 -16 16 0 17 22 14 28 -4z m182 8 c0 -5 -5 -10 -11 -10
-5 0 -7 5 -4 10 3 6 8 10 11 10 2 0 4 -4 4 -10z m200 -10 c0 -5 -4 -10 -10
-10 -5 0 -10 5 -10 10 0 6 5 10 10 10 6 0 10 -4 10 -10z m-98 -54 c-7 -12 -20
14 -17 33 6 27 7 27 14 1 5 -14 6 -29 3 -34z m-582 18 c0 -16 -16 -19 -25 -4
-8 13 4 32 16 25 5 -4 9 -13 9 -21z m123 -17 c-3 -5 -10 -4 -15 1 -6 6 -7 16
-3 22 6 9 9 9 16 -1 4 -7 5 -17 2 -22z m134 18 c8 -23 -4 -30 -21 -12 -8 8
-12 17 -9 21 11 11 23 7 30 -9z m123 5 c0 -5 -5 -10 -11 -10 -5 0 -7 5 -4 10
3 6 8 10 11 10 2 0 4 -4 4 -10z m-60 -10 c0 -5 -4 -10 -10 -10 -5 0 -10 5 -10
10 0 6 5 10 10 10 6 0 10 -4 10 -10z m395 0 c3 -5 1 -10 -4 -10 -6 0 -11 5
-11 10 0 6 2 10 4 10 3 0 8 -4 11 -10z m-4795 -30 c0 -5 -5 -10 -11 -10 -5 0
-7 5 -4 10 3 6 8 10 11 10 2 0 4 -4 4 -10z m4308 -12 c19 -19 14 -30 -8 -18
-11 6 -20 15 -20 20 0 14 14 12 28 -2z m262 -14 c0 -8 -4 -14 -9 -14 -11 0
-22 26 -14 34 9 9 23 -3 23 -20z m60 11 c0 -8 -4 -15 -10 -15 -5 0 -10 7 -10
15 0 8 5 15 10 15 6 0 10 -7 10 -15z m140 -9 c0 -28 -14 -56 -26 -56 -17 0
-18 12 -2 28 8 8 8 15 0 25 -7 8 -9 16 -6 20 9 9 34 -4 34 -17z m60 14 c0 -5
-4 -10 -10 -10 -5 0 -10 5 -10 10 0 6 5 10 10 10 6 0 10 -4 10 -10z m-158 -40
c-5 -34 -7 -35 -26 -18 -10 10 -9 16 8 30 12 9 21 17 22 18 0 0 -1 -13 -4 -30z
m-795 -12 c-3 -8 -6 -5 -6 6 -1 11 2 17 5 13 3 -3 4 -12 1 -19z m726 -11 c-3
-5 -9 -3 -14 4 -4 7 -5 17 -2 22 3 5 9 3 14 -4 4 -7 5 -17 2 -22z m212 17 c11
4 15 2 13 -6 -3 -7 -13 -15 -23 -16 -19 -4 -37 16 -28 31 3 5 9 3 13 -3 5 -7
16 -10 25 -6z m-605 -9 c10 -12 10 -15 -4 -15 -9 0 -16 7 -16 15 0 8 2 15 4
15 2 0 9 -7 16 -15z m130 5 c8 -5 11 -12 7 -16 -4 -4 -15 0 -24 9 -18 18 -8
23 17 7z m60 0 c0 -5 -2 -10 -4 -10 -3 0 -8 5 -11 10 -3 6 -1 10 4 10 6 0 11
-4 11 -10z m138 -15 c-3 -3 -9 2 -12 12 -6 14 -5 15 5 6 7 -7 10 -15 7 -18z
m-458 0 c0 -8 -2 -15 -4 -15 -2 0 -6 7 -10 15 -3 8 -1 15 4 15 6 0 10 -7 10
-15z m-160 -25 c0 -5 -4 -10 -10 -10 -5 0 -10 5 -10 10 0 6 5 10 10 10 6 0 10
-4 10 -10z m190 -6 c0 -8 -4 -12 -10 -9 -5 3 -10 10 -10 16 0 5 5 9 10 9 6 0
10 -7 10 -16z m390 0 c0 -8 -5 -12 -10 -9 -6 4 -8 11 -5 16 9 14 15 11 15 -7z
m67 -10 c-9 -9 -28 6 -21 18 4 6 10 6 17 -1 6 -6 8 -13 4 -17z m128 16 c3 -5
1 -10 -4 -10 -6 0 -11 5 -11 10 0 6 2 10 4 10 3 0 8 -4 11 -10z m-385 -10 c0
-5 -4 -10 -10 -10 -5 0 -10 5 -10 10 0 6 5 10 10 10 6 0 10 -4 10 -10z m60 0
c0 -5 -7 -7 -17 -3 -14 5 -15 1 -10 -35 3 -23 2 -42 -3 -42 -11 0 -20 27 -20
61 0 24 4 29 25 29 14 0 25 -4 25 -10z m294 -22 c4 -17 2 -28 -4 -28 -5 0 -10
14 -10 32 0 36 4 35 14 -4z m96 22 c0 -5 -2 -10 -4 -10 -3 0 -8 5 -11 10 -3 6
-1 10 4 10 6 0 11 -4 11 -10z m40 0 c0 -5 -4 -10 -10 -10 -5 0 -10 5 -10 10 0
6 5 10 10 10 6 0 10 -4 10 -10z m-5220 -30 c0 -5 -2 -10 -4 -10 -3 0 -8 5 -11
10 -3 6 -1 10 4 10 6 0 11 -4 11 -10z m4820 -3 c0 -7 -9 -13 -20 -13 -22 0
-27 12 -7 19 21 9 27 8 27 -6z m408 -23 c-10 -10 -28 6 -28 24 0 15 1 15 17
-1 9 -9 14 -19 11 -23z m-330 15 c-2 -6 -8 -10 -13 -10 -5 0 -11 4 -13 10 -2
6 4 11 13 11 9 0 15 -5 13 -11z m92 7 c0 -3 -4 -8 -10 -11 -5 -3 -10 -1 -10 4
0 6 5 11 10 11 6 0 10 -2 10 -4z m192 -21 c-3 -20 0 -25 17 -25 11 0 21 -4 21
-10 0 -5 -13 -10 -29 -10 -17 0 -33 5 -36 10 -3 6 -1 10 5 10 7 0 9 7 6 17 -5
12 6 31 20 33 1 0 -1 -11 -4 -25z m-327 -33 c-8 -9 -25 20 -18 31 3 5 10 2 15
-7 6 -10 7 -20 3 -24z m-255 7 c0 -5 -4 -9 -10 -9 -5 0 -10 7 -10 16 0 8 5 12
10 9 6 -3 10 -10 10 -16z m330 -5 c0 -8 -4 -14 -9 -14 -12 0 -32 26 -25 33 10
9 34 -4 34 -19z m-460 -11 c0 -19 -13 -9 -16 12 -1 8 2 13 7 9 5 -3 9 -12 9
-21z m325 17 c3 -5 1 -10 -4 -10 -6 0 -11 5 -11 10 0 6 2 10 4 10 3 0 8 -4 11
-10z m203 -8 c6 -18 -15 -14 -22 4 -4 10 -1 14 6 12 6 -2 14 -10 16 -16z m128
3 c19 -19 8 -41 -12 -24 -14 11 -20 39 -8 39 3 0 12 -7 20 -15z m-706 -5 c0
-5 -2 -10 -4 -10 -3 0 -8 5 -11 10 -3 6 -1 10 4 10 6 0 11 -4 11 -10z m-3830
-20 c0 -5 -5 -10 -11 -10 -5 0 -7 5 -4 10 3 6 8 10 11 10 2 0 4 -4 4 -10z
m-585 -10 c3 -5 1 -10 -4 -10 -6 0 -11 5 -11 10 0 6 2 10 4 10 3 0 8 -4 11
-10z m4440 -30 c1 -11 -2 -20 -7 -20 -4 0 -8 3 -8 8 0 4 -3 18 -6 32 -6 20 -4
23 6 13 8 -7 14 -22 15 -33z m185 30 c0 -5 -4 -10 -10 -10 -5 0 -10 5 -10 10
0 6 5 10 10 10 6 0 10 -4 10 -10z m125 0 c3 -5 1 -10 -4 -10 -6 0 -11 5 -11
10 0 6 2 10 4 10 3 0 8 -4 11 -10z m158 -5 c4 -8 2 -17 -3 -20 -12 -8 -52 19
-43 28 12 12 41 7 46 -8z m104 -17 c-3 -8 -6 -5 -6 6 -1 11 2 17 5 13 3 -3 4
-12 1 -19z m96 12 c8 0 8 -3 0 -11 -13 -13 -43 -5 -43 12 0 6 7 8 16 5 9 -3
21 -6 27 -6z m41 -6 c4 -10 1 -14 -6 -12 -15 5 -23 28 -10 28 5 0 13 -7 16
-16z m36 6 c0 -5 -4 -10 -10 -10 -5 0 -10 5 -10 10 0 6 5 10 10 10 6 0 10 -4
10 -10z m-4760 -30 c0 -5 -4 -10 -10 -10 -5 0 -10 5 -10 10 0 6 5 10 10 10 6
0 10 -4 10 -10z m4200 0 c0 -5 -5 -10 -11 -10 -5 0 -7 5 -4 10 3 6 8 10 11 10
2 0 4 -4 4 -10z m108 -19 c3 -8 -1 -12 -9 -9 -7 2 -15 10 -17 17 -3 8 1 12 9
9 7 -2 15 -10 17 -17z m127 0 c3 -10 14 -21 25 -24 11 -3 24 -16 29 -30 5 -14
16 -27 23 -30 10 -4 10 -8 -2 -16 -16 -11 -40 8 -53 42 -10 28 -30 21 -23 -9
6 -23 5 -25 -16 -19 -28 9 -24 5 -32 32 -4 12 -2 24 4 28 5 3 10 -2 10 -12 0
-17 1 -17 18 1 16 16 16 18 -7 37 -22 18 -22 19 -3 19 11 0 23 -8 27 -19z m65
4 c0 -8 -4 -15 -10 -15 -5 0 -10 7 -10 15 0 8 5 15 10 15 6 0 10 -7 10 -15z
m80 -6 c0 -5 -7 -9 -15 -9 -15 0 -20 12 -9 23 8 8 24 -1 24 -14z m-282 -31
c20 2 32 -1 32 -9 0 -7 3 -9 7 -6 7 8 32 -23 33 -41 0 -8 -6 -12 -12 -9 -7 2
-12 10 -10 16 1 7 -2 10 -7 7 -5 -4 -14 1 -19 11 -7 12 -24 17 -53 18 -36 1
-44 -3 -58 -27 -14 -24 -31 -37 -31 -24 0 19 22 56 34 56 7 0 17 12 21 27 l6
27 13 -25 c9 -19 18 -23 44 -21z m329 0 c-3 -7 -5 -2 -5 12 0 14 2 19 5 13 2
-7 2 -19 0 -25z m-5047 2 c0 -5 -4 -10 -10 -10 -5 0 -10 5 -10 10 0 6 5 10 10
10 6 0 10 -4 10 -10z m4431 -2 c1 -7 1 -18 0 -23 0 -6 13 -16 30 -22 17 -7 28
-17 24 -22 -3 -6 -1 -11 4 -11 6 0 11 -9 11 -20 0 -22 -16 -27 -22 -8 -2 6
-10 8 -17 4 -9 -6 -7 -12 8 -23 25 -17 27 -29 6 -37 -11 -4 -21 6 -33 31 -13
28 -14 37 -4 40 17 6 15 32 -3 39 -8 4 -15 12 -15 19 0 8 -9 17 -20 20 -11 3
-20 11 -20 16 0 14 50 11 51 -3z m34 2 c3 -5 1 -10 -4 -10 -6 0 -11 5 -11 10
0 6 2 10 4 10 3 0 8 -4 11 -10z m485 -10 c0 -5 -4 -10 -10 -10 -5 0 -10 5 -10
10 0 6 5 10 10 10 6 0 10 -4 10 -10z m-430 -36 c0 -2 -7 -4 -15 -4 -8 0 -15 4
-15 10 0 5 7 7 15 4 8 -4 15 -8 15 -10z m215 -23 c-10 -16 -25 -3 -25 22 0 20
1 20 16 5 9 -9 13 -21 9 -27z m-75 9 c0 -5 -2 -10 -4 -10 -3 0 -8 5 -11 10 -3
6 -1 10 4 10 6 0 11 -4 11 -10z m-88 -35 c0 -5 -5 -11 -11 -13 -6 -2 -11 4
-11 13 0 9 5 15 11 13 6 -2 11 -8 11 -13z m58 -6 c0 -6 -4 -7 -10 -4 -5 3 -10
11 -10 16 0 6 5 7 10 4 6 -3 10 -11 10 -16z m197 1 c8 -11 9 -21 3 -25 -8 -5
-30 24 -30 39 0 13 16 5 27 -14z m66 5 c4 -8 2 -17 -3 -20 -6 -4 -10 -4 -10
-1 0 2 -3 11 -6 20 -3 9 -2 16 4 16 5 0 12 -7 15 -15z m-352 -58 c-5 -5 -7
-16 -4 -23 10 -26 -12 -14 -24 13 -10 21 -10 28 -1 34 16 10 42 -11 29 -24z
m133 -8 c-8 -13 -24 -1 -24 18 0 13 3 13 15 3 8 -7 12 -16 9 -21z m56 15 c0
-8 -4 -12 -10 -9 -5 3 -10 10 -10 16 0 5 5 9 10 9 6 0 10 -7 10 -16z m64 1 c3
-9 0 -15 -9 -15 -8 0 -15 7 -15 15 0 8 4 15 9 15 5 0 11 -7 15 -15z m74 -4 c3
-8 -1 -12 -9 -9 -7 2 -15 10 -17 17 -3 8 1 12 9 9 7 -2 15 -10 17 -17z m62 5
c0 -24 -15 -26 -28 -5 -11 16 -9 19 8 19 11 0 20 -6 20 -14z m-4930 -22 c0 -8
-4 -12 -10 -9 -5 3 -10 10 -10 16 0 5 5 9 10 9 6 0 10 -7 10 -16z m4770 -36
c0 -11 -18 -10 -25 2 -4 6 -15 6 -31 0 -19 -8 -29 -6 -40 4 -10 11 -11 17 -3
22 6 3 15 1 19 -6 6 -10 13 -9 31 4 22 15 25 15 36 -1 7 -9 13 -20 13 -25z
m-266 16 c4 -10 1 -14 -6 -12 -15 5 -23 28 -10 28 5 0 13 -7 16 -16z m66 -10
c0 -8 -4 -12 -10 -9 -5 3 -10 13 -10 21 0 8 5 12 10 9 6 -3 10 -13 10 -21z
m280 -11 c0 -12 13 -17 33 -14 14 2 7 -17 -9 -23 -19 -7 -34 0 -34 17 0 7 -9
18 -20 25 -12 7 -18 17 -15 22 8 12 45 -10 45 -27z m45 27 c4 -6 11 -7 17 -4
6 4 9 1 6 -7 -7 -20 -42 -17 -46 4 -4 18 13 24 23 7z m-355 -56 c0 -16 -16
-19 -25 -4 -8 13 4 32 16 25 5 -4 9 -13 9 -21z m140 -8 c-13 -13 -41 1 -34 18
5 12 9 13 25 3 11 -7 15 -15 9 -21z m-200 3 c0 -5 -4 -9 -10 -9 -5 0 -10 7
-10 16 0 8 5 12 10 9 6 -3 10 -10 10 -16z m120 -1 c0 -19 -2 -20 -10 -8 -13
19 -13 30 0 30 6 0 10 -10 10 -22z m189 15 c17 -3 21 -7 13 -15 -8 -8 -15 -8
-26 1 -10 8 -21 9 -33 3 -20 -10 -46 -5 -38 8 5 9 46 10 84 3z m-259 -43 c0 5
9 10 20 10 14 0 20 -7 20 -21 0 -18 -3 -19 -15 -9 -8 6 -19 9 -25 5 -16 -10 7
-35 26 -28 8 3 14 0 14 -6 0 -21 -47 -11 -64 14 -23 34 -21 48 4 35 14 -7 20
-7 20 0z m160 2 c0 -12 -59 -31 -66 -21 -3 5 -3 12 -1 17 7 9 67 13 67 4z m32
-14 c-7 -7 -12 -8 -12 -2 0 14 12 26 19 19 2 -3 -1 -11 -7 -17z m48 -4 c0 -16
-16 -19 -25 -4 -8 13 4 32 16 25 5 -4 9 -13 9 -21z m-167 -47 c-3 -5 -10 -4
-15 1 -6 6 -7 16 -3 22 6 9 9 9 16 -1 4 -7 5 -17 2 -22z m198 6 c13 -15 11
-16 -11 -10 -14 4 -29 7 -33 7 -5 0 -5 5 -2 10 9 15 31 12 46 -7z m-231 -38
c0 -9 -6 -12 -15 -9 -8 4 -15 10 -15 15 0 5 7 9 15 9 8 0 15 -7 15 -15z
m-2027 -105 c3 -11 17 -25 32 -32 27 -12 30 -11 116 33 13 6 18 3 22 -12 5
-20 36 -26 53 -9 11 11 44 3 44 -10 0 -5 9 -6 20 -3 12 3 20 0 20 -7 0 -7 8
-9 20 -5 19 6 20 3 14 -22 -9 -36 -17 -45 -46 -47 -19 -1 -22 -6 -20 -30 2
-17 0 -26 -7 -22 -5 4 -13 1 -18 -6 -18 -29 -39 -38 -71 -29 -25 7 -30 6 -25
-5 3 -8 9 -11 14 -8 5 3 9 1 9 -5 0 -19 -33 -30 -48 -15 -18 18 -32 18 -32 -1
0 -8 -5 -15 -11 -15 -7 0 -9 -9 -6 -21 3 -12 0 -22 -9 -26 -8 -3 -14 -11 -14
-19 0 -8 -6 -11 -15 -8 -11 5 -13 2 -8 -12 4 -11 3 -15 -4 -11 -19 12 -41 -3
-54 -35 -12 -29 -13 -30 -20 -9 -9 22 -33 28 -44 11 -4 -6 -24 -10 -46 -8 -30
1 -39 6 -39 20 0 10 -7 21 -16 25 -8 3 -13 12 -10 19 3 8 0 13 -6 11 -7 -1
-17 12 -23 29 -5 17 -16 39 -24 48 -18 22 -22 73 -5 73 10 0 10 -5 2 -21 -10
-19 -10 -20 6 -7 9 8 14 21 11 28 -2 8 -1 22 4 31 5 10 11 33 13 52 6 63 59
116 74 75 10 -24 37 -17 62 14 21 26 26 28 52 20 15 -6 30 -19 33 -29z m-2233
-14 c0 -3 -4 -8 -10 -11 -5 -3 -10 -1 -10 4 0 6 5 11 10 11 6 0 10 -2 10 -4z
m4479 -62 c6 4 11 3 11 -2 0 -6 -7 -12 -15 -16 -8 -3 -15 -4 -15 -2 0 3 -3 13
-6 23 -4 14 -4 15 4 4 5 -7 15 -10 21 -7z m-2119 -175 c0 -6 -4 -7 -10 -4 -5
3 -10 11 -10 16 0 6 5 7 10 4 6 -3 10 -11 10 -16z m-402 -284 c-3 -3 -9 2 -12
12 -6 14 -5 15 5 6 7 -7 10 -15 7 -18z m50 -14 c11 -6 9 -9 -7 -14 -12 -3 -22
1 -25 9 -6 16 12 18 32 5z"/>
<path d="M1928 3713 c-19 -5 -31 -30 -17 -38 15 -10 47 4 45 20 -3 19 -8 22
-28 18z"/>
<path d="M2790 3982 c0 -5 9 -12 21 -15 13 -3 19 -1 16 6 -5 15 -37 22 -37 9z"/>
<path d="M2386 3424 c-8 -21 -8 -24 3 -24 5 0 11 9 14 20 6 24 -8 27 -17 4z"/>
<path d="M3026 3338 c3 -4 9 -8 15 -8 5 0 9 4 9 8 0 5 -7 9 -15 9 -8 0 -12 -4
-9 -9z"/>
<path d="M3000 3330 c0 -5 5 -10 11 -10 5 0 7 5 4 10 -3 6 -8 10 -11 10 -2 0
-4 -4 -4 -10z"/>
<path d="M3068 3333 c7 -3 16 -2 19 1 4 3 -2 6 -13 5 -11 0 -14 -3 -6 -6z"/>
<path d="M2390 3084 c0 -3 14 -23 32 -45 27 -33 32 -47 31 -91 -1 -49 -3 -54
-55 -104 l-55 -53 -43 10 c-51 12 -114 4 -131 -17 -6 -8 -8 -14 -5 -14 4 0 2
-9 -3 -19 -15 -26 2 -37 71 -45 44 -5 69 -2 105 12 84 33 147 76 165 112 17
34 16 39 -2 115 -16 65 -26 86 -55 113 -32 29 -55 41 -55 26z"/>
<path d="M1856 2705 c16 -47 21 -50 96 -60 50 -6 76 2 116 38 27 25 28 33 5
41 -10 3 -26 11 -36 18 -15 11 -24 9 -57 -9 -49 -28 -86 -29 -102 -3 -25 39
-38 23 -22 -25z"/>
<path d="M2190 2515 c5 -14 9 -31 7 -37 -3 -16 20 -21 26 -4 8 19 -3 57 -14
50 -5 -3 -9 0 -9 5 0 6 -4 11 -10 11 -6 0 -6 -9 0 -25z"/>
<path d="M2285 2433 c-37 -10 -78 -44 -66 -56 17 -17 13 -45 -9 -57 -28 -15
-43 -3 -38 31 4 28 3 29 -36 29 -33 0 -47 -6 -73 -33 -17 -17 -56 -57 -87 -88
-61 -62 -69 -85 -33 -98 13 -5 31 -16 40 -25 20 -20 111 -56 142 -56 13 0 26
-4 29 -8 6 -10 120 -8 186 3 68 11 150 59 241 141 45 41 95 82 111 91 52 32
38 45 -72 69 -80 17 -81 17 -74 -1 5 -12 -5 -13 -63 -8 -81 7 -101 15 -105 45
-2 19 -10 23 -38 25 -19 0 -44 -1 -55 -4z m275 -143 c0 -12 -28 -25 -36 -17
-9 9 6 27 22 27 8 0 14 -5 14 -10z m-50 -25 c0 -13 -75 -55 -99 -55 -26 0 -7
28 32 48 50 26 67 27 67 7z m-120 -65 c0 -9 -84 -56 -121 -69 -36 -12 -121 -7
-162 8 -13 5 -30 9 -38 9 -32 -2 -49 3 -49 13 0 7 9 9 21 6 28 -8 173 9 241
27 51 14 108 17 108 6z"/>
<path d="M1835 1800 c-9 -15 -1 -23 21 -18 15 3 16 4 1 16 -11 9 -17 10 -22 2z"/>
<path d="M3048 839 c-14 -8 -15 -13 -6 -28 14 -22 44 -17 51 9 8 31 -12 39
-45 19z"/>
<path d="M5501 1304 c0 -11 3 -14 6 -6 3 7 2 16 -1 19 -3 4 -6 -2 -5 -13z"/>
<path d="M5580 1301 c0 -5 5 -11 11 -13 8 -3 12 -13 18 -47 1 -3 6 0 12 6 8 8
6 18 -7 37 -19 26 -34 33 -34 17z"/>
<path d="M5535 1254 c-10 -8 -14 -14 -8 -14 6 0 18 -3 27 -6 10 -4 16 -1 16 9
0 23 -13 27 -35 11z"/>
<path d="M5460 1250 c0 -5 9 -10 20 -10 11 0 20 5 20 10 0 6 -9 10 -20 10 -11
0 -20 -4 -20 -10z"/>
<path d="M5520 1206 c0 -8 5 -18 10 -21 6 -3 10 1 10 9 0 8 -4 18 -10 21 -5 3
-10 -1 -10 -9z"/>
<path d="M5474 1165 c-10 -8 -14 -14 -9 -15 15 0 40 18 34 24 -3 3 -14 -1 -25
-9z"/>
<path d="M5525 1120 c3 -5 8 -10 11 -10 2 0 4 5 4 10 0 6 -5 10 -11 10 -5 0
-7 -4 -4 -10z"/>
<path d="M5425 1110 c-3 -5 -2 -10 4 -10 5 0 13 5 16 10 3 6 2 10 -4 10 -5 0
-13 -4 -16 -10z"/>
<path d="M5460 1110 c0 -5 5 -10 11 -10 5 0 7 5 4 10 -3 6 -8 10 -11 10 -2 0
-4 -4 -4 -10z"/>
<path d="M5490 1109 c0 -5 5 -7 10 -4 6 3 10 8 10 11 0 2 -4 4 -10 4 -5 0 -10
-5 -10 -11z"/>
<path d="M5490 1069 c0 -5 5 -7 10 -4 6 3 10 8 10 11 0 2 -4 4 -10 4 -5 0 -10
-5 -10 -11z"/>
<path d="M5162 988 c5 -15 28 -23 28 -10 0 5 -7 13 -16 16 -10 4 -14 1 -12 -6z"/>
<path d="M5232 989 c2 -7 10 -15 17 -17 8 -3 12 1 9 9 -2 7 -10 15 -17 17 -8
3 -12 -1 -9 -9z"/>
<path d="M5367 993 c-3 -5 -2 -15 2 -22 5 -7 11 -9 14 -4 3 5 2 15 -2 22 -5 7
-11 9 -14 4z"/>
<path d="M5425 980 c3 -5 8 -10 11 -10 2 0 4 5 4 10 0 6 -5 10 -11 10 -5 0 -7
-4 -4 -10z"/>
<path d="M5137 940 c3 -11 7 -20 9 -20 2 0 4 9 4 20 0 11 -4 20 -9 20 -5 0 -7
-9 -4 -20z"/>
<path d="M5202 948 c2 -6 10 -14 16 -16 7 -2 10 2 6 12 -7 18 -28 22 -22 4z"/>
<path d="M5335 950 c-7 -12 2 -30 16 -30 12 0 12 27 0 35 -5 3 -12 1 -16 -5z"/>
<path d="M5396 951 c-4 -5 -2 -12 3 -15 5 -4 12 -2 15 3 4 5 2 12 -3 15 -5 4
-12 2 -15 -3z"/>
<path d="M5275 940 c3 -5 11 -10 16 -10 6 0 7 5 4 10 -3 6 -11 10 -16 10 -6 0
-7 -4 -4 -10z"/>
<path d="M5237 914 c-6 -10 9 -42 16 -34 3 3 1 14 -3 24 -3 11 -9 15 -13 10z"/>
<path d="M5310 892 c1 -26 26 -56 35 -41 4 6 1 15 -6 20 -12 7 -12 10 -1 18
11 6 9 10 -7 14 -15 4 -21 0 -21 -11z"/>
<path d="M4851 746 c2 -2 15 -9 29 -16 23 -12 24 -12 11 3 -7 10 -20 17 -29
17 -8 0 -13 -2 -11 -4z"/>
<path d="M2075 691 c-3 -5 -1 -12 5 -16 5 -3 10 1 10 9 0 18 -6 21 -15 7z"/>
<path d="M4792 673 c2 -11 -3 -17 -12 -16 -21 4 -25 -146 -5 -154 8 -2 12 -10
9 -18 -3 -7 5 -15 20 -19 13 -3 26 -13 28 -21 2 -12 22 -3 83 37 74 49 95 77
55 70 -12 -2 -17 3 -16 15 1 13 -5 17 -21 15 -13 -2 -23 2 -23 8 0 6 -4 8 -10
5 -5 -3 -10 -1 -10 4 0 6 -8 11 -19 11 -32 0 -85 26 -71 35 7 4 16 2 20 -5 9
-15 60 -6 60 11 0 6 -5 7 -11 3 -6 -3 -24 3 -40 15 -34 26 -41 26 -37 4z"/>
<path d="M1970 670 c0 -5 4 -10 9 -10 6 0 13 5 16 10 3 6 -1 10 -9 10 -9 0
-16 -4 -16 -10z"/>
<path d="M2312 658 c5 -15 28 -23 28 -10 0 5 -7 13 -16 16 -10 4 -14 1 -12 -6z"/>
<path d="M2354 649 c-3 -6 -3 -13 0 -16 3 -4 6 -1 6 5 0 6 7 9 15 6 8 -4 15
-4 15 -1 0 11 -30 16 -36 6z"/>
<path d="M4180 520 c0 -5 5 -10 10 -10 6 0 10 5 10 10 0 6 -4 10 -10 10 -5 0
-10 -4 -10 -10z"/>
<path d="M4056 497 c-11 -9 -13 -16 -6 -27 8 -12 10 -12 10 5 1 19 1 19 14 2
12 -16 14 -16 20 -1 8 21 8 21 -8 27 -8 3 -21 0 -30 -6z"/>
<path d="M3975 450 c-11 -5 -15 -9 -10 -10 6 -1 -1 -5 -14 -9 -14 -4 -26 -13
-29 -21 -2 -10 -1 -11 5 -4 4 6 17 10 28 8 11 -2 26 4 33 14 7 9 15 16 17 15
3 -2 5 0 6 4 1 11 -14 12 -36 3z"/>
<path d="M3785 362 c-8 -21 -7 -22 18 -22 13 0 32 9 42 20 19 21 19 21 -18 18
-20 -1 -39 -8 -42 -16z"/>
<path d="M3630 331 c0 -17 18 -21 24 -6 3 9 0 15 -9 15 -8 0 -15 -4 -15 -9z"/>
<path d="M2869 298 c9 -26 51 -32 59 -9 3 9 0 11 -7 7 -7 -4 -23 -1 -36 8 -24
16 -24 15 -16 -6z"/>
<path d="M2966 282 c-3 -3 -3 -9 0 -13 7 -12 54 -12 54 0 0 10 -47 21 -54 13z"/>
<path d="M3303 278 c-3 -6 -14 -8 -24 -5 -10 3 -22 1 -25 -5 -3 -5 -12 -7 -20
-4 -8 3 -14 1 -14 -4 0 -5 -7 -7 -15 -4 -8 4 -15 1 -15 -5 0 -6 3 -10 8 -10 4
1 16 1 27 0 17 -1 18 -3 5 -11 -13 -8 -12 -10 3 -10 9 0 17 5 17 10 0 6 5 10
11 10 6 0 8 -7 5 -16 -3 -8 -2 -12 4 -9 6 3 36 8 67 11 97 9 108 11 106 23 -2
6 1 11 5 11 5 0 9 6 9 14 0 11 -17 14 -74 14 -41 -1 -76 -5 -80 -10z"/>
<path d="M3035 260 c3 -5 8 -10 11 -10 2 0 4 5 4 10 0 6 -5 10 -11 10 -5 0 -7
-4 -4 -10z"/>
</g>
</svg>
